riter neue.ufo
<glyph name="quotesingle" format="1">
  <advance width="296"/>
  <unicode hex="0027"/>
  <outline>
    <contour>
      <point x="194" y="733" type="line"/>
      <point x="194" y="745"/>
      <point x="188" y="750"/>
      <point x="182" y="750" type="curve"/>
      <point x="113" y="750" type="line"/>
      <point x="105" y="750"/>
      <point x="101" y="746"/>
      <point x="101" y="735" type="curve"/>
      <point x="101" y="478" type="line"/>
      <point x="101" y="467"/>
      <point x="105" y="463"/>
      <point x="113" y="463" type="curve"/>
      <point x="182" y="463" type="line"/>
      <point x="188" y="463"/>
      <point x="194" y="468"/>
      <point x="194" y="480" type="curve"/>
    </contour>
  </outline>
</glyph>
<glyph name="asterisk" format="1">
  <advance width="630"/>
  <unicode hex="002A"/>
  <outline>
    <contour>
      <point x="355" y="103" type="line"/>
      <point x="364" y="103"/>
      <point x="368" y="107"/>
      <point x="368" y="120" type="curve"/>
      <point x="359" y="303" type="line"/>
      <point x="337" y="290" type="line"/>
      <point x="488" y="192" type="line"/>
      <point x="500" y="186"/>
      <point x="509" y="191"/>
      <point x="512" y="194" type="curve"/>
      <point x="551" y="262" type="line"/>
      <point x="555" y="270"/>
      <point x="554" y="275"/>
      <point x="543" y="283" type="curve"/>
      <point x="380" y="366" type="line"/>
      <point x="380" y="341" type="line"/>
      <point x="543" y="424" type="line"/>
      <point x="553" y="431"/>
      <point x="555" y="437"/>
      <point x="551" y="445" type="curve"/>
      <point x="511" y="511" type="line"/>
      <point x="508" y="516"/>
      <point x="500" y="521"/>
      <point x="487" y="513" type="curve"/>
      <point x="337" y="415" type="line"/>
      <point x="359" y="402" type="line"/>
      <point x="368" y="585" type="line"/>
      <point x="368" y="596"/>
      <point x="364" y="602"/>
      <point x="355" y="602" type="curve"/>
      <point x="278" y="602" type="line"/>
      <point x="271" y="602"/>
      <point x="265" y="597"/>
      <point x="265" y="583" type="curve"/>
      <point x="274" y="401" type="line"/>
      <point x="296" y="414" type="line"/>
      <point x="141" y="514" type="line"/>
      <point x="131" y="520"/>
      <point x="125" y="519"/>
      <point x="120" y="511" type="curve"/>
      <point x="82" y="443" type="line"/>
      <point x="79" y="437"/>
      <point x="80" y="430"/>
      <point x="92" y="421" type="curve"/>
      <point x="251" y="340" type="line"/>
      <point x="251" y="365" type="line"/>
      <point x="91" y="284" type="line"/>
      <point x="80" y="276"/>
      <point x="79" y="268"/>
      <point x="81" y="262" type="curve"/>
      <point x="120" y="196" type="line"/>
      <point x="125" y="189"/>
      <point x="130" y="186"/>
      <point x="141" y="193" type="curve"/>
      <point x="296" y="292" type="line"/>
      <point x="274" y="305" type="line"/>
      <point x="265" y="122" type="line"/>
      <point x="265" y="110"/>
      <point x="272" y="104"/>
      <point x="278" y="103" type="curve"/>
    </contour>
  </outline>
</glyph>
<glyph name="one" format="1">
  <advance width="451"/>
  <unicode hex="0031"/>
  <outline>
    <contour>
      <point x="278" y="622" type="line"/>
      <point x="277" y="641"/>
      <point x="266" y="649"/>
      <point x="248" y="649" type="curve"/>
      <point x="105" y="649" type="line"/>
      <point x="103" y="643"/>
      <point x="102" y="637"/>
      <point x="102" y="624" type="curve" smooth="yes"/>
      <point x="102" y="611"/>
      <point x="102" y="610"/>
      <point x="105" y="604" type="curve" smooth="yes"/>
      <point x="107" y="600"/>
      <point x="149" y="582"/>
      <point x="165" y="576" type="curve" smooth="yes"/>
      <point x="172" y="573"/>
      <point x="176" y="566"/>
      <point x="176" y="559" type="curve"/>
      <point x="176" y="92" type="line"/>
      <point x="176" y="81"/>
      <point x="170" y="77"/>
      <point x="163" y="74" type="curve" smooth="yes"/>
      <point x="149" y="67"/>
      <point x="108" y="53"/>
      <point x="106" y="49" type="curve" smooth="yes"/>
      <point x="103" y="43"/>
      <point x="103" y="38"/>
      <point x="103" y="25" type="curve" smooth="yes"/>
      <point x="103" y="12"/>
      <point x="104" y="6"/>
      <point x="106" y="0" type="curve"/>
      <point x="351" y="0" type="line"/>
      <point x="353" y="6"/>
      <point x="354" y="12"/>
      <point x="354" y="25" type="curve" smooth="yes"/>
      <point x="354" y="38"/>
      <point x="354" y="43"/>
      <point x="351" y="49" type="curve" smooth="yes"/>
      <point x="349" y="53"/>
      <point x="301" y="68"/>
      <point x="290" y="74" type="curve"/>
      <point x="281" y="77"/>
      <point x="278" y="84"/>
      <point x="278" y="95" type="curve"/>
    </contour>
  </outline>
</glyph>
<glyph name="four" format="1">
  <advance width="678"/>
  <unicode hex="0034"/>
  <outline>
    <contour>
      <point x="397" y="576" type="line"/>
      <point x="391" y="92" type="line" smooth="yes"/>
      <point x="391" y="81"/>
      <point x="385" y="77"/>
      <point x="378" y="74" type="curve" smooth="yes"/>
      <point x="364" y="67"/>
      <point x="323" y="53"/>
      <point x="321" y="49" type="curve" smooth="yes"/>
      <point x="318" y="43"/>
      <point x="318" y="38"/>
      <point x="318" y="25" type="curve" smooth="yes"/>
      <point x="318" y="12"/>
      <point x="319" y="6"/>
      <point x="321" y="0" type="curve"/>
      <point x="560" y="0" type="line"/>
      <point x="562" y="6"/>
      <point x="563" y="12"/>
      <point x="563" y="25" type="curve" smooth="yes"/>
      <point x="563" y="38"/>
      <point x="563" y="43"/>
      <point x="560" y="49" type="curve" smooth="yes"/>
      <point x="558" y="53"/>
      <point x="513" y="68"/>
      <point x="502" y="74" type="curve"/>
      <point x="493" y="77"/>
      <point x="490" y="84"/>
      <point x="490" y="95" type="curve"/>
      <point x="496" y="660" type="line"/>
      <point x="404" y="660" type="line"/>
      <point x="77" y="283" type="line"/>
      <point x="74" y="280"/>
      <point x="74" y="276"/>
      <point x="75" y="273" type="curve"/>
      <point x="97" y="188" type="line"/>
      <point x="98" y="182"/>
      <point x="101" y="178"/>
      <point x="105" y="178" type="curve"/>
      <point x="554" y="178" type="line"/>
      <point x="565" y="178"/>
      <point x="572" y="187"/>
      <point x="575" y="197" type="curve"/>
      <point x="608" y="308" type="line"/>
      <point x="608" y="316"/>
      <point x="595" y="320"/>
      <point x="581" y="320" type="curve" smooth="yes"/>
      <point x="561" y="320"/>
      <point x="553" y="315"/>
      <point x="553" y="308" type="curve"/>
      <point x="544" y="268"/>
      <point x="518" y="266"/>
      <point x="472" y="266" type="curve"/>
      <point x="172" y="266" type="line"/>
      <point x="175" y="253" type="line"/>
      <point x="424" y="562" type="line"/>
    </contour>
  </outline>
</glyph>
<glyph name="five" format="1">
  <advance width="630"/>
  <unicode hex="0035"/>
  <outline>
    <contour>
      <point x="181" y="297" type="curve"/>
      <point x="209" y="326"/>
      <point x="252" y="354"/>
      <point x="312" y="354" type="curve"/>
      <point x="406" y="354"/>
      <point x="441" y="293"/>
      <point x="441" y="227" type="curve"/>
      <point x="441" y="161"/>
      <point x="397" y="85"/>
      <point x="309" y="85" type="curve" smooth="yes"/>
      <point x="210" y="85"/>
      <point x="152" y="142"/>
      <point x="152" y="202" type="curve"/>
      <point x="152" y="206"/>
      <point x="139" y="208"/>
      <point x="128" y="208" type="curve" smooth="yes"/>
      <point x="117" y="208"/>
      <point x="103" y="206"/>
      <point x="103" y="202" type="curve"/>
      <point x="103" y="92" type="line"/>
      <point x="103" y="81"/>
      <point x="174" y="-12"/>
      <point x="308" y="-12" type="curve"/>
      <point x="452" y="-12"/>
      <point x="550" y="92"/>
      <point x="550" y="230" type="curve"/>
      <point x="550" y="336"/>
      <point x="474" y="445"/>
      <point x="339" y="445" type="curve" smooth="yes"/>
      <point x="243" y="445"/>
      <point x="173" y="406"/>
      <point x="173" y="379" type="curve"/>
      <point x="192" y="370" type="line"/>
      <point x="192" y="474"/>
      <point x="193" y="501"/>
      <point x="193" y="582" type="curve"/>
      <point x="165" y="549" type="line"/>
      <point x="391" y="549" type="line"/>
      <point x="437" y="549"/>
      <point x="477" y="537"/>
      <point x="477" y="509" type="curve"/>
      <point x="477" y="504"/>
      <point x="493" y="502"/>
      <point x="503" y="502" type="curve"/>
      <point x="515" y="502"/>
      <point x="533" y="504"/>
      <point x="532" y="509" type="curve"/>
      <point x="500" y="649" type="line"/>
      <point x="105" y="649" type="line"/>
      <point x="105" y="490"/>
      <point x="104" y="410"/>
      <point x="104" y="352" type="curve"/>
      <point x="104" y="344"/>
      <point x="105" y="342"/>
      <point x="109" y="338" type="curve"/>
      <point x="167" y="299" type="line"/>
      <point x="172" y="295"/>
      <point x="178" y="294"/>
    </contour>
  </outline>
</glyph>
<glyph name="D" format="1">
  <advance width="847"/>
  <unicode hex="0044"/>
  <outline>
    <contour>
      <point x="387" y="-3" type="curve" smooth="yes"/>
      <point x="564" y="-3"/>
      <point x="757" y="112"/>
      <point x="757" y="362" type="curve"/>
      <point x="757" y="583"/>
      <point x="599" y="712"/>
      <point x="395" y="712" type="curve"/>
      <point x="291" y="712"/>
      <point x="111" y="700"/>
      <point x="73" y="700" type="curve"/>
      <point x="73" y="627" type="line"/>
      <point x="128" y="627"/>
      <point x="155" y="608"/>
      <point x="155" y="573" type="curve"/>
      <point x="155" y="123" type="line" smooth="yes"/>
      <point x="155" y="89"/>
      <point x="127" y="70"/>
      <point x="69" y="70" type="curve"/>
      <point x="69" y="0" type="line"/>
      <point x="188" y="0"/>
      <point x="281" y="-3"/>
    </contour>
    <contour>
      <point x="314" y="89"/>
      <point x="253" y="98"/>
      <point x="253" y="114" type="curve" smooth="yes"/>
      <point x="257" y="609" type="line"/>
      <point x="257" y="625"/>
      <point x="307" y="632"/>
      <point x="382" y="632" type="curve"/>
      <point x="539" y="632"/>
      <point x="650" y="525"/>
      <point x="650" y="368" type="curve"/>
      <point x="650" y="164"/>
      <point x="517" y="89"/>
      <point x="382" y="90" type="curve"/>
    </contour>
  </outline>
</glyph>
<glyph name="I" format="1">
  <advance width="393"/>
  <unicode hex="0049"/>
  <outline>
    <contour>
      <point x="324" y="0" type="line"/>
      <point x="324" y="69" type="line"/>
      <point x="281" y="69"/>
      <point x="239" y="85"/>
      <point x="239" y="122" type="curve" smooth="yes"/>
      <point x="239" y="578" type="line" smooth="yes"/>
      <point x="239" y="612"/>
      <point x="277" y="625"/>
      <point x="323" y="625" type="curve"/>
      <point x="323" y="700" type="line"/>
      <point x="61" y="700" type="line"/>
      <point x="61" y="625" type="line"/>
      <point x="102" y="625"/>
      <point x="141" y="609"/>
      <point x="141" y="578" type="curve" smooth="yes"/>
      <point x="141" y="122" type="line" smooth="yes"/>
      <point x="141" y="84"/>
      <point x="102" y="69"/>
      <point x="61" y="69" type="curve"/>
      <point x="61" y="0" type="line"/>
    </contour>
  </outline>
</glyph>
<glyph name="L" format="1">
  <advance width="637"/>
  <unicode hex="004C"/>
  <outline>
    <contour>
      <point x="264" y="586" type="line"/>
      <point x="265" y="613"/>
      <point x="282" y="630"/>
      <point x="332" y="630" type="curve"/>
      <point x="332" y="700" type="line"/>
      <point x="92" y="700" type="line"/>
      <point x="92" y="630" type="line"/>
      <point x="137" y="630"/>
      <point x="163" y="613"/>
      <point x="162" y="586" type="curve"/>
      <point x="162" y="112" type="line"/>
      <point x="162" y="78"/>
      <point x="126" y="69"/>
      <point x="92" y="69" type="curve"/>
      <point x="92" y="0" type="line"/>
      <point x="569" y="0" type="line"/>
      <point x="583" y="157" type="line"/>
      <point x="514" y="157" type="line"/>
      <point x="514" y="119"/>
      <point x="487" y="88"/>
      <point x="445" y="88" type="curve"/>
      <point x="264" y="88" type="line"/>
    </contour>
  </outline>
</glyph>
<glyph name="M" format="1">
  <advance width="1047"/>
  <unicode hex="004D"/>
  <outline>
    <contour>
      <point x="846" y="566" type="line" smooth="yes"/>
      <point x="842" y="598"/>
      <point x="863" y="623"/>
      <point x="922" y="623" type="curve"/>
      <point x="922" y="700" type="line"/>
      <point x="741" y="700" type="line"/>
      <point x="519" y="120" type="line"/>
      <point x="540" y="121" type="line"/>
      <point x="290" y="700" type="line"/>
      <point x="112" y="700" type="line"/>
      <point x="112" y="623" type="line"/>
      <point x="169" y="623"/>
      <point x="190" y="606"/>
      <point x="186" y="568" type="curve" smooth="yes"/>
      <point x="137" y="137" type="line" smooth="yes"/>
      <point x="132" y="93"/>
      <point x="107" y="70"/>
      <point x="60" y="70" type="curve"/>
      <point x="60" y="0" type="line"/>
      <point x="305" y="0" type="line"/>
      <point x="305" y="70" type="line"/>
      <point x="255" y="70"/>
      <point x="227" y="91"/>
      <point x="231" y="136" type="curve" smooth="yes"/>
      <point x="269" y="555" type="line"/>
      <point x="253" y="553" type="line"/>
      <point x="482" y="7" type="line"/>
      <point x="561" y="7" type="line"/>
      <point x="775" y="553" type="line"/>
      <point x="759" y="555" type="line"/>
      <point x="809" y="124" type="line" smooth="yes"/>
      <point x="814" y="78"/>
      <point x="787" y="70"/>
      <point x="736" y="70" type="curve"/>
      <point x="736" y="0" type="line"/>
      <point x="981" y="0" type="line"/>
      <point x="981" y="70" type="line"/>
      <point x="933" y="70"/>
      <point x="909" y="92"/>
      <point x="904" y="127" type="curve" smooth="yes"/>
    </contour>
  </outline>
</glyph>
<glyph name="N" format="1">
  <advance width="883"/>
  <unicode hex="004E"/>
  <outline>
    <contour>
      <point x="626" y="569" type="line"/>
      <point x="626" y="610"/>
      <point x="600" y="623"/>
      <point x="552" y="623" type="curve"/>
      <point x="552" y="699" type="line"/>
      <point x="795" y="699" type="line"/>
      <point x="795" y="623" type="line"/>
      <point x="745" y="623"/>
      <point x="717" y="614"/>
      <point x="717" y="569" type="curve"/>
      <point x="717" y="0" type="line"/>
      <point x="633" y="0" type="line"/>
      <point x="233" y="570" type="line"/>
      <point x="247" y="572" type="line"/>
      <point x="252" y="136" type="line"/>
      <point x="252" y="88"/>
      <point x="285" y="69"/>
      <point x="349" y="69" type="curve"/>
      <point x="349" y="0" type="line"/>
      <point x="90" y="0" type="line"/>
      <point x="90" y="69" type="line"/>
      <point x="135" y="69"/>
      <point x="160" y="86"/>
      <point x="160" y="120" type="curve"/>
      <point x="160" y="567" type="line"/>
      <point x="160" y="607"/>
      <point x="132" y="626"/>
      <point x="90" y="626" type="curve"/>
      <point x="90" y="700" type="line"/>
      <point x="260" y="700" type="line"/>
      <point x="653" y="138" type="line"/>
      <point x="629" y="135" type="line"/>
    </contour>
  </outline>
</glyph>
<glyph name="O" format="1">
  <advance width="841"/>
  <unicode hex="004F"/>
  <outline>
    <contour>
      <point x="600" y="-18"/>
      <point x="766" y="99"/>
      <point x="766" y="346" type="curve" smooth="yes"/>
      <point x="766" y="613"/>
      <point x="587" y="713"/>
      <point x="414" y="713" type="curve"/>
      <point x="249" y="713"/>
      <point x="78" y="584"/>
      <point x="78" y="357" type="curve" smooth="yes"/>
      <point x="78" y="91"/>
      <point x="269" y="-18"/>
      <point x="423" y="-18" type="curve"/>
    </contour>
    <contour>
      <point x="189" y="356" type="curve" smooth="yes"/>
      <point x="189" y="532"/>
      <point x="305" y="621"/>
      <point x="416" y="621" type="curve"/>
      <point x="528" y="621"/>
      <point x="658" y="544"/>
      <point x="658" y="346" type="curve" smooth="yes"/>
      <point x="658" y="164"/>
      <point x="540" y="74"/>
      <point x="423" y="74" type="curve"/>
      <point x="325" y="74"/>
      <point x="189" y="158"/>
    </contour>
  </outline>
</glyph>
<glyph name="T" format="1">
  <advance width="661"/>
  <unicode hex="0054"/>
  <outline>
    <contour>
      <point x="213" y="0" type="line"/>
      <point x="448" y="0" type="line"/>
      <point x="448" y="70" type="line"/>
      <point x="411" y="70"/>
      <point x="380" y="79"/>
      <point x="380" y="114" type="curve"/>
      <point x="380" y="615" type="line"/>
      <point x="492" y="615" type="line"/>
      <point x="511" y="615"/>
      <point x="535" y="582"/>
      <point x="535" y="539" type="curve"/>
      <point x="603" y="539" type="line"/>
      <point x="592" y="700" type="line"/>
      <point x="69" y="700" type="line" smooth="yes"/>
      <point x="58" y="539" type="line"/>
      <point x="126" y="539" type="line"/>
      <point x="126" y="582"/>
      <point x="150" y="615"/>
      <point x="169" y="615" type="curve"/>
      <point x="281" y="615" type="line"/>
      <point x="281" y="114" type="line"/>
      <point x="281" y="79"/>
      <point x="250" y="70"/>
      <point x="213" y="70" type="curve"/>
    </contour>
  </outline>
</glyph>
<glyph name="Z" format="1">
  <advance width="677"/>
  <unicode hex="005A"/>
  <outline>
    <contour>
      <point x="478" y="92" type="line"/>
      <point x="513" y="92"/>
      <point x="532" y="148"/>
      <point x="532" y="191" type="curve"/>
      <point x="601" y="191" type="line"/>
      <point x="588" y="1" type="line"/>
      <point x="98" y="1" type="line"/>
      <point x="81" y="92" type="line"/>
      <point x="478" y="620" type="line"/>
      <point x="482" y="606" type="line"/>
      <point x="229" y="606" type="line"/>
      <point x="203" y="606"/>
      <point x="167" y="558"/>
      <point x="167" y="509" type="curve"/>
      <point x="98" y="509" type="line"/>
      <point x="125" y="700" type="line"/>
      <point x="568" y="700" type="line"/>
      <point x="587" y="607" type="line"/>
      <point x="199" y="70" type="line"/>
      <point x="196" y="92" type="line"/>
    </contour>
  </outline>
</glyph>
<glyph name="g" format="1">
  <advance width="703"/>
  <unicode hex="0067"/>
  <outline>
    <contour>
      <point x="515" y="495" type="curve"/>
      <point x="574" y="437" type="line"/>
      <point x="574" y="472"/>
      <point x="612" y="501"/>
      <point x="662" y="501" type="curve"/>
      <point x="662" y="576" type="line"/>
      <point x="558" y="576"/>
      <point x="515" y="521"/>
    </contour>
    <contour>
      <point x="351" y="486" type="curve" smooth="yes"/>
      <point x="460" y="486"/>
      <point x="522" y="401"/>
      <point x="522" y="301" type="curve" smooth="yes"/>
      <point x="522" y="190"/>
      <point x="454" y="128"/>
      <point x="350" y="128" type="curve"/>
      <point x="262" y="128"/>
      <point x="182" y="195"/>
      <point x="182" y="301" type="curve"/>
      <point x="182" y="407"/>
      <point x="253" y="486"/>
    </contour>
    <contour>
      <point x="400" y="63" type="line"/>
      <point x="448" y="63"/>
      <point x="485" y="20"/>
      <point x="485" y="-22" type="curve"/>
      <point x="485" y="-78"/>
      <point x="434" y="-117"/>
      <point x="365" y="-117" type="curve"/>
      <point x="293" y="-117"/>
      <point x="247" y="-69"/>
      <point x="247" y="-17" type="curve"/>
      <point x="161" y="-17" type="line"/>
      <point x="161" y="-100"/>
      <point x="224" y="-194"/>
      <point x="362" y="-194" type="curve"/>
      <point x="504" y="-194"/>
      <point x="580" y="-109"/>
      <point x="580" y="-21" type="curve"/>
      <point x="580" y="63"/>
      <point x="510" y="113"/>
      <point x="474" y="113" type="curve"/>
    </contour>
    <contour>
      <point x="491" y="49"/>
      <point x="619" y="155"/>
      <point x="619" y="303" type="curve"/>
      <point x="619" y="437"/>
      <point x="522" y="561"/>
      <point x="350" y="561" type="curve" smooth="yes"/>
      <point x="174" y="561"/>
      <point x="85" y="433"/>
      <point x="85" y="296" type="curve" smooth="yes"/>
      <point x="85" y="154"/>
      <point x="205" y="49"/>
      <point x="348" y="49" type="curve" smooth="yes"/>
    </contour>
  </outline>
</glyph>
<glyph name="h" format="1">
  <advance width="759"/>
  <unicode hex="0068"/>
  <outline>
    <contour>
      <point x="619" y="118" type="curve"/>
      <point x="619" y="317" type="line"/>
      <point x="619" y="456"/>
      <point x="565" y="565"/>
      <point x="408" y="565" type="curve"/>
      <point x="270" y="565"/>
      <point x="206" y="472"/>
      <point x="206" y="427" type="curve"/>
      <point x="224" y="429" type="line"/>
      <point x="224" y="675" type="line"/>
      <point x="224" y="720"/>
      <point x="200" y="750"/>
      <point x="149" y="750" type="curve"/>
      <point x="62" y="750" type="line"/>
      <point x="62" y="679" type="line"/>
      <point x="109" y="679"/>
      <point x="132" y="664"/>
      <point x="132" y="607" type="curve" smooth="yes"/>
      <point x="132" y="115" type="line" smooth="yes"/>
      <point x="132" y="79"/>
      <point x="111" y="70"/>
      <point x="85" y="70" type="curve"/>
      <point x="85" y="0" type="line"/>
      <point x="314" y="0" type="line"/>
      <point x="314" y="70" type="line"/>
      <point x="268" y="70"/>
      <point x="228" y="77"/>
      <point x="228" y="115" type="curve" smooth="yes"/>
      <point x="228" y="308" type="line"/>
      <point x="228" y="416"/>
      <point x="303" y="482"/>
      <point x="385" y="482" type="curve" smooth="yes"/>
      <point x="475" y="482"/>
      <point x="524" y="427"/>
      <point x="524" y="305" type="curve"/>
      <point x="524" y="120" type="line"/>
      <point x="524" y="81"/>
      <point x="508" y="70"/>
      <point x="474" y="70" type="curve"/>
      <point x="474" y="0" type="line"/>
      <point x="707" y="0" type="line"/>
      <point x="707" y="70" type="line"/>
      <point x="658" y="70"/>
      <point x="619" y="83"/>
    </contour>
  </outline>
</glyph>
<glyph name="l" format="1">
  <advance width="367"/>
  <unicode hex="006C"/>
  <outline>
    <contour>
      <point x="227" y="116" type="line" smooth="yes"/>
      <point x="227" y="84"/>
      <point x="263" y="70"/>
      <point x="316" y="70" type="curve"/>
      <point x="316" y="0" type="line"/>
      <point x="83" y="0" type="line"/>
      <point x="83" y="70" type="line"/>
      <point x="111" y="70"/>
      <point x="131" y="85"/>
      <point x="131" y="112" type="curve" smooth="yes"/>
      <point x="131" y="607" type="line"/>
      <point x="131" y="658"/>
      <point x="108" y="681"/>
      <point x="62" y="681" type="curve"/>
      <point x="62" y="750" type="line"/>
      <point x="161" y="750" type="line"/>
      <point x="206" y="750"/>
      <point x="227" y="717"/>
      <point x="227" y="676" type="curve"/>
    </contour>
  </outline>
</glyph>
<glyph name="m" format="1">
  <advance width="1125"/>
  <unicode hex="006D"/>
  <outline>
    <contour>
      <point x="971" y="346" type="line"/>
      <point x="971" y="471"/>
      <point x="900" y="564"/>
      <point x="767" y="564" type="curve" smooth="yes"/>
      <point x="664" y="564"/>
      <point x="565" y="499"/>
      <point x="565" y="441" type="curve"/>
      <point x="583" y="441" type="line"/>
      <point x="583" y="498"/>
      <point x="514" y="565"/>
      <point x="412" y="565" type="curve"/>
      <point x="282" y="565"/>
      <point x="223" y="464"/>
      <point x="223" y="406" type="curve"/>
      <point x="231" y="402" type="line"/>
      <point x="231" y="491" type="line"/>
      <point x="231" y="528"/>
      <point x="200" y="550"/>
      <point x="168" y="550" type="curve"/>
      <point x="73" y="550" type="line"/>
      <point x="73" y="480" type="line"/>
      <point x="128" y="480"/>
      <point x="155" y="461"/>
      <point x="155" y="415" type="curve"/>
      <point x="155" y="119" type="line"/>
      <point x="155" y="87"/>
      <point x="129" y="68"/>
      <point x="104" y="68" type="curve"/>
      <point x="104" y="0" type="line"/>
      <point x="336" y="0" type="line"/>
      <point x="336" y="68" type="line"/>
      <point x="289" y="68"/>
      <point x="250" y="84"/>
      <point x="250" y="119" type="curve"/>
      <point x="250" y="318" type="line"/>
      <point x="250" y="429"/>
      <point x="318" y="481"/>
      <point x="385" y="481" type="curve"/>
      <point x="458" y="481"/>
      <point x="519" y="441"/>
      <point x="519" y="323" type="curve" smooth="yes"/>
      <point x="519" y="118" type="line"/>
      <point x="519" y="81"/>
      <point x="485" y="68"/>
      <point x="465" y="68" type="curve"/>
      <point x="465" y="0" type="line"/>
      <point x="702" y="0" type="line"/>
      <point x="702" y="68" type="line"/>
      <point x="647" y="68"/>
      <point x="612" y="83"/>
      <point x="612" y="119" type="curve"/>
      <point x="612" y="323" type="line"/>
      <point x="612" y="413"/>
      <point x="675" y="481"/>
      <point x="753" y="481" type="curve"/>
      <point x="812" y="481"/>
      <point x="878" y="441"/>
      <point x="878" y="323" type="curve"/>
      <point x="878" y="119" type="line"/>
      <point x="878" y="84"/>
      <point x="853" y="68"/>
      <point x="829" y="68" type="curve"/>
      <point x="829" y="0" type="line"/>
      <point x="1048" y="0" type="line"/>
      <point x="1048" y="68" type="line"/>
      <point x="997" y="68"/>
      <point x="971" y="80"/>
      <point x="971" y="119" type="curve"/>
    </contour>
  </outline>
</glyph>
<glyph name="p" format="1">
  <advance width="777"/>
  <unicode hex="0070"/>
  <outline>
    <contour>
      <point x="405" y="74" type="curve"/>
      <point x="305" y="74"/>
      <point x="229" y="151"/>
      <point x="229" y="273" type="curve" smooth="yes"/>
      <point x="229" y="387"/>
      <point x="304" y="474"/>
      <point x="412" y="474" type="curve"/>
      <point x="528" y="474"/>
      <point x="583" y="386"/>
      <point x="583" y="278" type="curve" smooth="yes"/>
      <point x="583" y="168"/>
      <point x="533" y="74"/>
    </contour>
    <contour>
      <point x="135" y="421" type="curve"/>
      <point x="135" y="-131" type="line"/>
      <point x="135" y="-157"/>
      <point x="118" y="-180"/>
      <point x="85" y="-180" type="curve"/>
      <point x="85" y="-250" type="line"/>
      <point x="322" y="-250" type="line"/>
      <point x="322" y="-180" type="line"/>
      <point x="254" y="-180"/>
      <point x="230" y="-166"/>
      <point x="230" y="-131" type="curve"/>
      <point x="230" y="138" type="line"/>
      <point x="214" y="135" type="line"/>
      <point x="214" y="81"/>
      <point x="286" y="-15"/>
      <point x="412" y="-15" type="curve" smooth="yes"/>
      <point x="584" y="-15"/>
      <point x="688" y="111"/>
      <point x="688" y="278" type="curve" smooth="yes"/>
      <point x="688" y="438"/>
      <point x="586" y="562"/>
      <point x="428" y="562" type="curve"/>
      <point x="295" y="562"/>
      <point x="216" y="463"/>
      <point x="216" y="416" type="curve"/>
      <point x="227" y="409" type="line"/>
      <point x="227" y="491" type="line"/>
      <point x="227" y="525"/>
      <point x="197" y="550"/>
      <point x="159" y="550" type="curve"/>
      <point x="62" y="550" type="line"/>
      <point x="62" y="481" type="line"/>
      <point x="106" y="481"/>
      <point x="135" y="455"/>
    </contour>
  </outline>
</glyph>
<glyph name="x" format="1">
  <advance width="709"/>
  <unicode hex="0078"/>
  <outline>
    <contour>
      <point x="230" y="99" type="curve" smooth="yes"/>
      <point x="364" y="248" type="line"/>
      <point x="330" y="247" type="line"/>
      <point x="469" y="98" type="line" smooth="yes"/>
      <point x="481" y="86"/>
      <point x="477" y="68"/>
      <point x="464" y="68" type="curve"/>
      <point x="428" y="68" type="line"/>
      <point x="428" y="0" type="line"/>
      <point x="669" y="0" type="line"/>
      <point x="669" y="68" type="line"/>
      <point x="638" y="68"/>
      <point x="605" y="77"/>
      <point x="573" y="111" type="curve" smooth="yes"/>
      <point x="404" y="291" type="line"/>
      <point x="403" y="246" type="line"/>
      <point x="587" y="454" type="line" smooth="yes"/>
      <point x="606" y="475"/>
      <point x="622" y="480"/>
      <point x="645" y="480" type="curve"/>
      <point x="645" y="550" type="line"/>
      <point x="427" y="550" type="line"/>
      <point x="427" y="480" type="line"/>
      <point x="471" y="480" type="line"/>
      <point x="491" y="480"/>
      <point x="488" y="454"/>
      <point x="478" y="444" type="curve" smooth="yes"/>
      <point x="349" y="305" type="line"/>
      <point x="384" y="307" type="line"/>
      <point x="256" y="444" type="line" smooth="yes"/>
      <point x="243" y="457"/>
      <point x="241" y="480"/>
      <point x="262" y="480" type="curve"/>
      <point x="301" y="480" type="line"/>
      <point x="301" y="550" type="line"/>
      <point x="54" y="550" type="line"/>
      <point x="54" y="480" type="line"/>
      <point x="81" y="480"/>
      <point x="112" y="480"/>
      <point x="137" y="451" type="curve" smooth="yes"/>
      <point x="301" y="267" type="line"/>
      <point x="305" y="300" type="line"/>
      <point x="121" y="103" type="line" smooth="yes"/>
      <point x="100" y="81"/>
      <point x="72" y="68"/>
      <point x="49" y="68" type="curve"/>
      <point x="49" y="0" type="line"/>
      <point x="278" y="0" type="line"/>
      <point x="277" y="68" type="line"/>
      <point x="241" y="68" type="line"/>
      <point x="225" y="68"/>
      <point x="222" y="91"/>
    </contour>
  </outline>
</glyph>
<glyph name="quotedblleft" format="1">
  <advance width="540"/>
  <outline>
    <contour>
      <point x="302" y="751" type="line"/>
      <point x="296" y="751"/>
      <point x="288" y="746"/>
      <point x="288" y="734" type="curve"/>
      <point x="288" y="540" type="line"/>
      <point x="288" y="479"/>
      <point x="308" y="463"/>
      <point x="367" y="463" type="curve" smooth="yes"/>
      <point x="424" y="463"/>
      <point x="445" y="479"/>
      <point x="445" y="540" type="curve" smooth="yes"/>
      <point x="445" y="597"/>
      <point x="439" y="621"/>
      <point x="366" y="621" type="curve"/>
      <point x="382" y="587" type="line"/>
      <point x="381" y="736" type="line"/>
      <point x="381" y="747"/>
      <point x="379" y="751"/>
      <point x="371" y="751" type="curve"/>
    </contour>
    <contour>
      <point x="102" y="751" type="line"/>
      <point x="96" y="751"/>
      <point x="88" y="746"/>
      <point x="88" y="734" type="curve"/>
      <point x="88" y="540" type="line"/>
      <point x="88" y="479"/>
      <point x="108" y="463"/>
      <point x="167" y="463" type="curve" smooth="yes"/>
      <point x="224" y="463"/>
      <point x="245" y="479"/>
      <point x="245" y="540" type="curve" smooth="yes"/>
      <point x="245" y="597"/>
      <point x="239" y="621"/>
      <point x="166" y="621" type="curve"/>
      <point x="182" y="587" type="line"/>
      <point x="181" y="736" type="line"/>
      <point x="181" y="747"/>
      <point x="179" y="751"/>
      <point x="171" y="751" type="curve"/>
    </contour>
  </outline>
</glyph>
